<?xml version="1.0" encoding="UTF-8"?>
<svg id="Layer_1" data-name="Layer 1" xmlns="http://www.w3.org/2000/svg" viewBox="0 0 488 502">
  <defs>
    <style>
      .cls-1 {
        fill: #ceecb9;
        stroke-width: 0px;
      }
    </style>
  </defs>
  <circle class="cls-1" cx="277.6" cy="269.66" r="17.25"/>
  <circle class="cls-1" cx="202.76" cy="269.66" r="17.25"/>
  <path class="cls-1" d="m345.89,73h-213.78c-44.24,0-80.11,35.87-80.11,80.11v213.78c0,44.24,35.87,80.11,80.11,80.11h213.78c44.24,0,80.11-35.87,80.11-80.11v-213.78c0-44.24-35.87-80.11-80.11-80.11Zm9.83,256.49c-5.04,5.35-15.51,14.88-31.57,19.3-6.65,1.83-12.68,2.34-17.54,2.34-3.9-9.36-7.8-18.71-11.69-28.07l-.44-7.18c-16.23,7.9-36.08,12.55-57.5,12.55-19.44,0-37.56-3.83-52.88-10.43l-.16,2.57c-3.9,9.36-7.8,18.71-11.69,28.07-4.86,0-10.89-.51-17.54-2.34-16.07-4.42-26.53-13.94-31.57-19.3-5.22-20.01-13.94-57.37,1.17-97.65,10.52-28.07,47.21-45.81,67.83-43.27l-.83,13.72c13.68-4.86,29.21-7.61,45.69-7.61,18.46,0,35.74,3.45,50.55,9.46l-.8-13.07c20.61-2.54,57.3,15.2,67.83,43.27,15.11,40.28,6.39,77.64,1.17,97.65Z"/>
</svg>