<?xml version="1.0" encoding="UTF-8"?>
<svg id="Layer_1" data-name="Layer 1" xmlns="http://www.w3.org/2000/svg" viewBox="0 0 488 502">
  <defs>
    <style>
      .cls-1 {
        fill: #ceecb9;
        stroke-width: 0px;
      }
    </style>
  </defs>
  <path class="cls-1" d="m356.89,101c28.73,0,52.11,23.38,52.11,52.11v213.78c0,28.73-23.38,52.11-52.11,52.11h-213.78c-28.73,0-52.11-23.38-52.11-52.11v-213.78c0-28.73,23.38-52.11,52.11-52.11h213.78m0-28h-213.78c-44.24,0-80.11,35.87-80.11,80.11v213.78c0,44.24,35.87,80.11,80.11,80.11h213.78c44.24,0,80.11-35.87,80.11-80.11v-213.78c0-44.24-35.87-80.11-80.11-80.11h0Z"/>
  <path class="cls-1" d="m249.5,194c39.98,0,72.5,32.52,72.5,72.5s-32.52,72.5-72.5,72.5-72.5-32.52-72.5-72.5,32.52-72.5,72.5-72.5m0-28c-55.5,0-100.5,45-100.5,100.5s45,100.5,100.5,100.5,100.5-45,100.5-100.5-45-100.5-100.5-100.5h0Z"/>
  <path class="cls-1" d="m350,128c-15.46,0-28,12.54-28,28s12.54,28,28,28,28-12.54,28-28-12.54-28-28-28h0Z"/>
</svg>