<?xml version="1.0" encoding="UTF-8"?>
<svg id="Layer_1" data-name="Layer 1" xmlns="http://www.w3.org/2000/svg" viewBox="0 0 488 502">
  <defs>
    <style>
      .cls-1 {
        fill: #ceecb9;
        stroke-width: 0px;
      }
    </style>
  </defs>
  <path class="cls-1" d="m370.89,65h-213.78c-44.24,0-80.11,35.87-80.11,80.11v213.78c0,44.24,35.87,80.11,80.11,80.11h213.78c44.24,0,80.11-35.87,80.11-80.11v-213.78c0-44.24-35.87-80.11-80.11-80.11Zm-156.89,303h-60v-155h60v155Zm-30-172c-18.5,0-33.5-15-33.5-33.5s15-33.5,33.5-33.5,33.5,15,33.5,33.5-15,33.5-33.5,33.5Zm205.5,171.5h-60v-90h-.09c.06-.49.09-.99.09-1.5,0-7.18-5.82-13-13-13s-13,5.82-13,13c0,.51.04,1.01.09,1.5h-.09v90h-60v-155h60v14.57c8.4-4.81,18.13-7.57,28.5-7.57,31.25,0,56.66,24.94,57.46,56h.04v92Z"/>
</svg>